<svg xmlns="http://www.w3.org/2000/svg" xmlns:xlink="http://www.w3.org/1999/xlink" width="666.198" height="668.946" viewBox="0 0 666.198 668.946">
  <defs>
    <filter id="Shade" x="0" y="161.226" width="666.198" height="507.72" filterUnits="userSpaceOnUse">
      <feOffset input="SourceAlpha"/>
      <feGaussianBlur stdDeviation="55" result="blur"/>
      <feFlood flood-color="#3568d4" flood-opacity="0.4"/>
      <feComposite operator="in" in2="blur"/>
    </filter>
    <linearGradient id="linear-gradient" x1="0.5" x2="0.5" y2="1" gradientUnits="objectBoundingBox">
      <stop offset="0" stop-color="#e8f0ff"/>
      <stop offset="1" stop-color="#3e7bfa"/>
    </linearGradient>
    <linearGradient id="linear-gradient-2" x1="0.691" y1="0.055" x2="0.336" y2="0.549" gradientUnits="objectBoundingBox">
      <stop offset="0" stop-color="#fff"/>
      <stop offset="1" stop-color="#42afd4"/>
    </linearGradient>
    <linearGradient id="linear-gradient-3" x1="0.5" y1="-0.419" x2="0.5" y2="0.853" gradientUnits="objectBoundingBox">
      <stop offset="0" stop-color="#fff"/>
      <stop offset="1" stop-color="#45aad7"/>
    </linearGradient>
    <linearGradient id="linear-gradient-4" x1="0.448" y1="0.096" x2="0.448" y2="0.96" gradientUnits="objectBoundingBox">
      <stop offset="0" stop-color="#fff"/>
      <stop offset="1" stop-color="#44abd3"/>
    </linearGradient>
  </defs>
  <g id="Primary" transform="translate(77.202 -0.212)">
    <g transform="matrix(1, 0, 0, 1, -77.2, 0.21)" filter="url(#Shade)">
      <path id="Shade-2" data-name="Shade" d="M171.812,1.6a6.907,6.907,0,0,1,6.261-.021L340.632,83.534a6.907,6.907,0,0,1,0,12.335L178.073,177.822a6.907,6.907,0,0,1-6.261-.021L11.986,95.847a6.907,6.907,0,0,1,0-12.292Z" transform="translate(156.77 325.38)" fill="#fff"/>
    </g>
    <g id="Outline" transform="translate(0 194.495)" fill="none" stroke-linecap="round" stroke-linejoin="round" stroke-miterlimit="10">
      <path d="M250.4,1.983a6.907,6.907,0,0,1,6.872-.025L501.441,140.8a6.907,6.907,0,0,1,0,12.008L257.274,291.642a6.907,6.907,0,0,1-6.872-.025L10.338,152.779a6.907,6.907,0,0,1,0-11.958Z" stroke="none"/>
      <path d="M 253.8596801757812 3.93505859375 C 253.1527404785156 3.93505859375 252.4555969238281 4.12213134765625 251.8435974121094 4.47607421875 L 11.77996826171875 143.3139953613281 C 10.52081298828125 144.0422058105469 9.76910400390625 145.3453521728516 9.76910400390625 146.7998504638672 C 9.76910400390625 148.2543487548828 10.52081298828125 149.5574951171875 11.77996826171875 150.2857055664062 L 251.8435363769531 289.1235656738281 C 252.4555969238281 289.4775695800781 253.1527404785156 289.6646423339844 253.859619140625 289.6646423339844 C 254.5562438964844 289.6646423339844 255.2445373535156 289.4826354980469 255.85009765625 289.1382751464844 L 500.0173950195312 150.3003540039062 C 501.2924499511719 149.5752716064453 502.0537414550781 148.2667083740234 502.0537414550781 146.7998504638672 C 502.0537414550781 145.3329925537109 501.2924499511719 144.0244293212891 500.0173950195312 143.2993469238281 L 255.85009765625 4.46142578125 C 255.2445373535156 4.1170654296875 254.5562438964844 3.93505859375 253.8596801757812 3.93505859375 M 253.8596496582031 1.0550537109375 C 255.0372314453125 1.0550537109375 256.2149353027344 1.3558349609375 257.273681640625 1.957855224609375 L 501.4409484863281 140.7957763671875 C 506.0980224609375 143.4439239501953 506.0980224609375 150.1557769775391 501.4409484863281 152.8039245605469 L 257.273681640625 291.641845703125 C 255.14111328125 292.8544311523438 252.5254211425781 292.8449096679688 250.4017333984375 291.61669921875 L 10.33810424804688 152.7787780761719 C 5.739471435546875 150.1192016601562 5.739471435546875 143.4804992675781 10.33810424804688 140.8209228515625 L 250.4017333984375 1.983001708984375 C 251.4710998535156 1.364532470703125 252.6653137207031 1.0550537109375 253.8596496582031 1.0550537109375 Z" stroke="none" fill="#fff"/>
    </g>
    <path id="_4" data-name="4" d="M0,125.216A27.627,27.627,0,0,1,13.622,101.4L179.6,3.794a27.627,27.627,0,0,1,28.2.111l162.77,97.463A27.627,27.627,0,0,1,384,125.071V317.91A27.627,27.627,0,0,1,370.245,341.8L207.478,436.31a27.627,27.627,0,0,1-27.558.107L13.941,341.766A27.627,27.627,0,0,1,0,317.767Z" transform="translate(62.27 0.231)" opacity="0.154" fill="url(#linear-gradient)"/>
    <path id="_3" data-name="3" d="M0,116.861A27.627,27.627,0,0,1,13.809,92.938L160.884,7.982a27.627,27.627,0,0,1,27.637,0L335.6,92.938a27.627,27.627,0,0,1,13.809,23.923V286.8A27.627,27.627,0,0,1,335.6,310.719L188.521,395.674a27.627,27.627,0,0,1-27.637,0L13.809,310.719A27.627,27.627,0,0,1,0,286.8Z" transform="translate(79.568 18.542)" fill="url(#linear-gradient-2)"/>
    <path id="_2" data-name="2" d="M0,108.674a55.255,55.255,0,0,1,31.314-49.8L156.634-1.372a13.814,13.814,0,0,1,19.8,12.45V171.235a27.627,27.627,0,0,1-13.752,23.89L20.751,277.555A13.814,13.814,0,0,1,0,265.61V108.674Z" transform="translate(252.541 135.844)" fill="url(#linear-gradient-3)"/>
    <path id="_1" data-name="1" d="M0,13.8A13.814,13.814,0,0,1,19.873,1.391l124.366,60.7a55.255,55.255,0,0,1,31.019,49.656V253.806s.151,13.529,3.256,18.083c2.661,3.9,5.1,5.114,8.3,6.885s10.267,3.135,10.267,3.135l-8.113,4.39a27.627,27.627,0,0,1-27.145-.48L13.63,198.734A27.627,27.627,0,0,1,0,174.915Z" transform="translate(79.568 129.625)" fill="url(#linear-gradient-4)"/>
  </g>
</svg>
