<svg xmlns="http://www.w3.org/2000/svg" width="102.452" height="70.974" viewBox="0 0 102.452 70.974">
  <g id="cloud" transform="translate(0 -4.5)">
    <path id="Path_240" data-name="Path 240" d="M28.211,13.157A35.255,35.255,0,0,1,51.226,4.5C68.452,4.5,82.75,17.4,84.3,34.045a20.8,20.8,0,0,1-3.065,41.429H24.21a23.727,23.727,0,0,1-5.37-46.94c.916-5.569,4.471-11.118,9.374-15.376Zm4.181,4.884c-4.847,4.213-7.382,9.291-7.382,13.266V34.2l-2.849.315A17.292,17.292,0,0,0,24.21,69.021H81.239a14.379,14.379,0,1,0,0-28.745h-3.2V37.05c.006-14.324-11.9-26.1-26.811-26.1a28.88,28.88,0,0,0-18.831,7.1Z" transform="translate(0 0)" fill="#f2f2f2" fill-rule="evenodd"/>
  </g>
</svg>
