<svg xmlns="http://www.w3.org/2000/svg" width="117.75" height="114.969" viewBox="0 0 117.75 114.969">
  <path id="earth" d="M102.756,19.1a59.887,59.887,0,0,0-83.262,0,56.529,56.529,0,0,0,0,81.3,59.887,59.887,0,0,0,83.262,0,56.529,56.529,0,0,0,0-81.3ZM10.661,59.743a48.087,48.087,0,0,1,1.761-12.909c1.929,4.055,4.732,7.559,6.635,11.716,2.463,5.347,9.076,3.865,12,8.551,2.59,4.161-.176,9.42,1.764,13.774,1.409,3.161,4.732,3.851,7.024,6.161,2.34,2.329,2.291,5.522,2.65,8.562a76.694,76.694,0,0,0,1.959,10.592.111.111,0,0,0,.022.08C24.8,99.522,10.661,81.215,10.661,59.743Zm50.464,49.272a51.938,51.938,0,0,1-8.4-.685,17.291,17.291,0,0,1,.106-1.8,21.825,21.825,0,0,1,5.555-11.125c2.789-3.011,6.609-5.051,8.964-8.467a14.916,14.916,0,0,0,2.048-11.727c-1.4-5.759-9.416-7.679-13.737-10.8-2.482-1.8-4.7-4.573-7.955-4.8-1.5-.1-2.762.212-4.254-.161-1.368-.347-2.437-1.066-3.9-.876-2.721.35-4.437,3.186-7.36,2.8-2.774-.361-5.63-3.533-6.261-6.11-.811-3.314,1.877-4.391,4.755-4.686a8.346,8.346,0,0,1,3.7.175c1.518.547,2.235,2,3.6,2.737,2.557,1.369,3.076-.818,2.684-3.037-.587-3.321-1.271-4.672,1.764-6.96,2.1-1.577,3.9-2.715,3.562-5.544-.2-1.664-1.133-2.416-.262-4.069.658-1.259,2.471-2.4,3.652-3.15,3.047-1.942,13.05-1.8,8.964-7.227-1.2-1.595-3.417-4.442-5.521-4.832-2.628-.485-3.794,2.38-5.626,3.642-1.891,1.307-5.577,2.788-7.472.77-2.549-2.719,1.69-3.61,2.628-5.508.434-.887,0-2.113-.729-3.27q1.42-.584,2.89-1.084a4.161,4.161,0,0,0,2.1.77c1.757.113,3.417-.818,4.953.354,1.7,1.285,2.931,2.905,5.192,3.307a4.36,4.36,0,0,0,5.043-3.044,8.981,8.981,0,0,0-.314-4.106,51.02,51.02,0,0,1,27.6,8.267,2.479,2.479,0,0,0-1.929.179c-1.6.723-3.854,2.566-4.041,4.394-.213,2.073,2.919,2.365,4.407,2.365,2.235,0,4.5-.974,3.775-3.5A6.939,6.939,0,0,0,89.889,19.3a50.643,50.643,0,0,1,4.732,3.628c-.022.022-.049.044-.071.069-1.514,1.54-3.271,2.759-4.306,4.632a4.133,4.133,0,0,1-3.032,2.285,5.9,5.9,0,0,0-2.43.792c-1.9,1.464-.819,4.978.983,6.033a6.291,6.291,0,0,0,7.379-1.2c1.342-1.489,2.134-4.073,4.549-4.069a4.1,4.1,0,0,1,2.845,1.131c1,1.011.8,1.956,1.013,3.219.378,2.245,2.4,1.026,3.633-.106a48.83,48.83,0,0,1,2.43,4.818c-1.357,1.905-2.434,3.986-5.7,1.763-1.951-1.332-3.155-3.263-5.607-3.865-2.142-.515-4.336.022-6.452.376-2.4.409-5.256.588-7.08,2.365-1.764,1.715-2.7,4.007-4.572,5.73-3.63,3.336-5.162,6.978-2.811,11.694a12.354,12.354,0,0,0,12.089,6.672c5.013-.325,10.22-3.164,10.074,3.945a17.6,17.6,0,0,0,1.278,6.6,25.078,25.078,0,0,1,.852,6.471A39.662,39.662,0,0,0,100.935,90a50.843,50.843,0,0,1-39.811,19.015Z" transform="translate(-2.25 -2.259)" fill="#f2f2f2"/>
</svg>
