<svg xmlns="http://www.w3.org/2000/svg" width="36" height="34.406" viewBox="0 0 36 34.406">
  <path id="linkedin" d="M8.18,11.648V34.875H.445V11.648H8.179Zm.492-7.172A3.711,3.711,0,0,1,7.488,7.335,4.42,4.42,0,0,1,4.313,8.484H4.266A4.231,4.231,0,0,1,1.172,7.336,3.84,3.84,0,0,1,0,4.477,3.776,3.776,0,0,1,1.207,1.606,4.41,4.41,0,0,1,4.359.469,4.286,4.286,0,0,1,7.476,1.606a3.911,3.911,0,0,1,1.2,2.871ZM36,21.562V34.875H28.289V22.453A6.779,6.779,0,0,0,27.34,18.6a3.336,3.336,0,0,0-2.965-1.4,3.8,3.8,0,0,0-2.473.809,4.987,4.987,0,0,0-1.488,2,5.66,5.66,0,0,0-.258,1.9V34.875H12.445q.047-9.352.047-15.164t-.023-6.938l-.023-1.125h7.711v3.375H20.11a10.259,10.259,0,0,1,.961-1.313,9.949,9.949,0,0,1,1.324-1.219,6.1,6.1,0,0,1,2.039-1.02,9.227,9.227,0,0,1,2.683-.362,8.323,8.323,0,0,1,6.445,2.66Q36,16.429,36,21.563Z" transform="translate(0 -0.469)" fill="#fff"/>
</svg>
