<?xml version="1.0" encoding="utf-8"?>
<!-- Generator: Adobe Illustrator 26.0.2, SVG Export Plug-In . SVG Version: 6.00 Build 0)  -->
<svg version="1.1" id="Layer_1" xmlns="http://www.w3.org/2000/svg" xmlns:xlink="http://www.w3.org/1999/xlink" x="0px" y="0px"
	 viewBox="0 0 919.2 919.2" style="enable-background:new 0 0 919.2 919.2;" xml:space="preserve">
<style type="text/css">
	.st0{fill:#00758D;}
	.st1{fill:#3D3935;}
</style>
<g>
	<g>
		<polygon class="st0" points="286.4,532.5 368.5,532.5 445.4,283.1 417.9,283.1 		"/>
		<polygon class="st0" points="484.8,283.1 457.2,283.1 534.1,532.5 616.2,532.5 		"/>
		<path class="st1" d="M62.2,484v48.3h137.6c41.1-0.3,74.1-33.9,73.8-75c-0.3-41.1-33.9-74.1-75-73.8l0,0h-74
			c-14.3,0-25.8-11.6-25.8-25.8v-0.6c0-14.3,11.6-25.8,25.8-25.8h124.1v-48.3H123.1c-41.1,0.3-74.2,33.9-73.9,75s33.9,74.2,75,73.9
			h74c14.3,0,25.8,11.6,25.8,25.8v0.6c0,14.3-11.6,25.8-25.8,25.8H62.2z"/>
		<path class="st1" d="M655.1,532.5h47.1c0.3,0,0.6-0.2,0.6-0.5c0,0,0,0,0,0V331.8c0-0.3,0.2-0.6,0.5-0.6c0,0,0,0,0,0h83.8
			c14.6,0,26.4,11.8,26.4,26.4c0,14.3-11.6,25.8-25.8,25.8h-58.5c-0.3,0-0.6,0.3-0.6,0.6c0,0.1,0,0.2,0.1,0.3l83.8,147.4
			c0.1,0.2,0.3,0.3,0.5,0.3h52c0.3,0,0.6-0.3,0.6-0.6c0-0.1,0-0.2-0.1-0.3L810.1,435l-2.6-4.8c-0.2-0.3-0.1-0.6,0.2-0.8
			c0,0,0.1,0,0.1,0l5.2-1.9c38.7-13.7,59-56.3,45.3-95c-9.9-28-35.5-47.4-65.1-49.4c-1.3,0-2.6-0.1-4-0.2h-134
			c-0.3,0-0.6,0.3-0.6,0.6v248.4C654.6,532.2,654.9,532.5,655.1,532.5c0.1,0,0.1,0,0.1,0"/>
	</g>
	<g>
		<path class="st1" d="M64.1,714.5l1.8-8.5c4.1,1.7,8.4,2.6,12.8,2.7c5.4,0,8.1-1.9,8.1-5.6c0.1-1.8-0.6-3.5-2.1-4.5
			c-2.3-1.4-4.8-2.4-7.4-3.2c-3.6-1.1-7-3-9.8-5.5c-2.3-2.4-3.5-5.7-3.3-9.1c-0.2-4,1.4-7.9,4.4-10.5c2.9-2.4,7.1-3.7,12.4-3.7
			c4.5-0.1,9,0.8,13.1,2.5l-2,8.3c-3.3-1.4-6.9-2.1-10.6-2.2c-4.9,0-7.3,1.7-7.3,5.1c-0.1,1.5,0.5,3,1.7,4c1.9,1.3,4,2.3,6.2,3
			c2,0.7,3.9,1.4,5.8,2.3c1.6,0.8,3.1,1.7,4.5,2.8c1.4,1.1,2.5,2.6,3.2,4.3c0.7,1.9,1.1,4,1.1,6c0.2,4.1-1.6,8.1-4.9,10.6
			c-3.2,2.5-7.5,3.7-12.9,3.7C74,717.4,68.8,716.5,64.1,714.5"/>
		<path class="st1" d="M134.2,716.5l-2.9-10.7h-18c-0.9,3.3-1.9,6.8-2.9,10.7H100c5.6-20.4,11.3-36.7,17-48.9h10.4
			c5.9,12.5,11.6,28.8,17.1,48.9H134.2z M122.3,678.2c-2.6,6.2-4.8,12.5-6.6,19h13.1C127,690.8,124.8,684.4,122.3,678.2"/>
		<path class="st1" d="M146.2,697.1v-29.5h10v28.8c0,8.1,3.1,12.1,9.4,12.2c6.3,0,9.4-4,9.4-12.2v-28.8h10v29.5
			c0,6.6-1.7,11.6-5,15.1c-3.3,3.5-8.1,5.2-14.3,5.2c-6.3,0-11.1-1.7-14.4-5.2C147.9,708.7,146.3,703.7,146.2,697.1"/>
		<path class="st1" d="M194.7,716.5v-48.9h16.3c7.4,0,13.3,2.2,17.7,6.5c4.4,4.4,6.6,10.3,6.6,17.8c0,7.6-2.2,13.6-6.6,18
			c-4.4,4.4-10.3,6.6-17.7,6.6H194.7z M210.8,676.1h-6.1v31.9h6.1c9.5,0,14.2-5.4,14.2-16.1C225,681.3,220.3,676.1,210.8,676.1"/>
		<rect x="243" y="667.6" class="st1" width="10" height="48.9"/>
		<path class="st1" d="M309.5,716.5l-2.9-10.7h-18c-0.9,3.3-1.9,6.8-2.9,10.7h-10.3c5.6-20.4,11.2-36.7,17-48.9h10.4
			c5.9,12.5,11.6,28.8,17.1,48.9H309.5z M297.5,678.2c-2.6,6.2-4.8,12.5-6.6,19H304C302.2,690.8,300.1,684.4,297.5,678.2"/>
		<path class="st1" d="M338.9,698.4h-3v18.2h-10v-48.9h14.4c6.1,0,10.8,1.3,14.2,3.8c3.4,2.5,5.3,6.5,5.1,10.8
			c0,7-3.2,11.4-9.7,13.1c2.1,0.9,4,3,5.8,6.5l7.1,14.8h-10.7l-6.7-13.8c-0.6-1.3-1.5-2.4-2.6-3.3c-1.1-0.7-2.4-1.1-3.8-1
			 M339.8,676.1h-4V690h3.8c6.3,0,9.5-2.3,9.5-7c0.2-2.1-0.7-4.1-2.4-5.3c-2.2-1.2-4.6-1.7-7.1-1.5"/>
		<path class="st1" d="M399.6,716.5l-2.9-10.7h-18.1c-0.9,3.3-1.9,6.8-2.9,10.7h-10.3c5.6-20.4,11.3-36.7,17-48.9h10.5
			c5.9,12.5,11.6,28.8,17.1,48.9H399.6z M387.6,678.2c-2.6,6.2-4.8,12.5-6.6,19h13.1C392.3,690.8,390.2,684.4,387.6,678.2"/>
		<path class="st1" d="M432.5,716.5h-16.6v-48.9H431c5.7,0,10.1,1.1,13.2,3.2c3.2,2.1,5,5.7,4.8,9.4c0.2,4.1-1.9,8-5.4,10.1
			c4.8,2.2,7.2,6.1,7.2,11.7c0,4.8-1.6,8.4-4.9,10.8C442.8,715.3,438.2,716.5,432.5,716.5 M425.6,676.1v11.8h7.2
			c4.2,0,6.3-2.1,6.3-6.2c0-3.8-2.7-5.7-8-5.7L425.6,676.1z M425.6,695.4v12.5h6c2.4,0.1,4.8-0.4,6.9-1.4c1.6-1,2.5-2.8,2.3-4.7
			c0-4.3-2.8-6.4-8.4-6.4L425.6,695.4z"/>
		<rect x="458.3" y="667.6" class="st1" width="10" height="48.9"/>
		<path class="st1" d="M508.5,716.5l-2.9-10.7h-18c-1,3.3-2,6.8-2.9,10.7h-10.3c5.6-20.4,11.2-36.7,17-48.9h10.4
			c5.9,12.5,11.6,28.8,17.1,48.9H508.5z M496.6,678.2c-2.6,6.2-4.8,12.5-6.6,19h13.1C501.3,690.8,499.1,684.4,496.6,678.2"/>
		<path class="st1" d="M554.2,698.4h-3v18.2h-10.1v-48.9h14.4c6.1,0,10.8,1.3,14.2,3.8c3.4,2.5,5.3,6.5,5.1,10.8
			c0,7-3.2,11.4-9.7,13.1c2.1,0.9,4,3,5.8,6.5l7.1,14.8h-10.7l-6.6-13.8c-0.6-1.3-1.6-2.4-2.7-3.3
			C556.8,698.6,555.5,698.3,554.2,698.4 M555.1,676.1h-3.8v13.8h3.8c6.3,0,9.5-2.3,9.5-7c0.2-2.1-0.7-4-2.4-5.3
			C560.1,676.5,557.6,675.9,555.1,676.1"/>
		<path class="st1" d="M614.9,716.5l-2.9-10.7h-18c-0.9,3.3-1.9,6.8-2.9,10.7h-10.3c5.6-20.4,11.2-36.7,17-48.9h10.4
			c5.9,12.5,11.6,28.8,17.1,48.9H614.9z M603,678.2c-2.6,6.2-4.8,12.5-6.6,19h13.1C607.7,690.8,605.5,684.4,603,678.2"/>
		<rect x="631.2" y="667.6" class="st1" width="10" height="48.9"/>
		<polygon class="st1" points="651.3,716.5 651.3,667.6 661.3,667.6 661.3,708 681,708 681,716.5 		"/>
		<path class="st1" d="M727.2,707.1c1.5-4.4,3.1-10.3,4.8-17.7c1.7-7.5,3.1-14.7,4-21.7h10.2c-3.3,20.1-7.7,36.4-13.2,48.9h-11
			c-3.8-9.9-6.8-20.1-9.1-30.5c-2.3,10.4-5.4,20.5-9.2,30.5h-11c-3.1-7.5-5.6-15.2-7.6-23.1c-2.3-8.8-4.2-17.4-5.5-25.8h10.1
			c1.1,7.1,2.5,14.4,4.2,21.9c1.3,5.9,2.9,11.8,4.8,17.6c2.1-6,3.9-12,5.5-18.2c1.8-7,3.2-14.1,4.2-21.3h8.9
			c1,7.2,2.4,14.4,4.3,21.5C723.3,695.2,725.1,701.2,727.2,707.1"/>
		<path class="st1" d="M778.8,716.5l-2.9-10.7h-18c-1,3.3-2,6.8-2.9,10.7h-10.3c5.6-20.4,11.2-36.7,17-48.9h10.4
			c5.9,12.5,11.6,28.8,17.1,48.9H778.8z M766.9,678.2c-2.6,6.2-4.8,12.5-6.6,19h13.1C771.6,690.8,769.4,684.4,766.9,678.2"/>
		<path class="st1" d="M804.9,716.5h-10V697c-8-11.4-13.4-21.2-16.2-29.3H789c2.9,7.5,6.5,14.6,11,21.3c4.4-6.7,8-13.8,10.9-21.2
			h10.3c-3.1,8.4-8.5,18.2-16.2,29.3L804.9,716.5z"/>
		<path class="st1" d="M824.1,714.5l1.8-8.5c4.1,1.7,8.4,2.6,12.8,2.7c5.4,0,8.1-1.9,8.1-5.6c0.1-1.8-0.6-3.5-2.1-4.5
			c-2.3-1.4-4.8-2.4-7.4-3.2c-3.6-1.1-7-3-9.8-5.5c-2.3-2.5-3.5-5.8-3.3-9.1c-0.2-4,1.4-7.8,4.4-10.4c2.9-2.4,7.1-3.7,12.4-3.7
			c4.5-0.1,9,0.8,13.1,2.5l-2,8.3c-3.3-1.4-6.9-2.1-10.5-2.2c-4.9,0-7.3,1.7-7.3,5.1c-0.1,1.5,0.5,3,1.7,4c1.9,1.3,4,2.3,6.2,3
			c2,0.7,4,1.5,5.9,2.3c1.6,0.8,3.1,1.7,4.5,2.8c1.4,1.1,2.5,2.6,3.2,4.3c0.7,1.9,1.1,4,1.1,6c0.2,4.1-1.6,8.1-4.9,10.6
			c-3.2,2.5-7.5,3.7-12.8,3.7C834.1,717.4,828.9,716.5,824.1,714.5"/>
		<polygon class="st1" points="87.4,586.4 92.8,591.6 99.3,585 92.7,578.4 87.4,583.7 81.9,578.4 75.4,585 82,591.6 		"/>
		<path class="st1" d="M78.5,624.8c-4.1,0-6.4-2.1-6.4-5.6c0-5.5,4.8-9.9,13.5-11.6v11.6c0,1.4,0.1,2.8,0.4,4.2
			C83.5,624.4,81,624.8,78.5,624.8 M99.3,634h5.8c10.3,0,15.7-5.4,15.7-13.9c0-4.7-0.6-10.1-2.1-20.3h-8.9c1.6,10,2.1,14.9,2.1,18.9
			s-1.6,6.1-6.8,6.1h-5.8c-3.7,0-4.9-1.8-4.9-4.9V596h-8.9v3.8c-16.5,2.7-22.2,12.6-22.2,20.4c0,8.5,5.8,13.8,15,13.8
			c3.9,0,7.1-1.4,10.9-3.5C92,632.9,95.6,634.2,99.3,634"/>
		<polygon class="st1" points="109.8,643.3 104.5,638.2 97.9,644.8 104.6,651.3 109.8,646.2 115,651.3 121.5,644.8 114.9,638.2 		
			"/>
		<path class="st1" d="M137.6,599.7c4.8,10,7.5,18.2,7.5,20.8c0,3-2.2,4.1-7.3,4.1c-3.9-0.1-7.9-0.6-11.6-1.7l-1.7,8.8
			c5,1.4,10.2,2.2,15.4,2.2c9.2,0,14-4.4,14-12.1c0-4.8-2.7-13.3-7.2-22.2H137.6z"/>
		<path class="st1" d="M217.3,623c-2.6-4.8-5.8-9.4-9.3-13.6c2.7-1.2,5.5-1.8,8.4-2c5.5,0,8.7,2.4,8.7,6.1S222,620.9,217.3,623
			 M178.6,624.8c-7.1,0-11-2.7-11-8.1c0-4.9,3.4-8.3,7.5-8.3c4.2,0,6.6,2.6,7,8.1c0.1,2.6,0.4,5.1,0.5,8.3
			C181.6,624.8,180.5,624.8,178.6,624.8 M308.9,618.5c0,4.2-1.6,6.1-6.8,6.1c-2.9,0.1-5.8-0.7-8.4-2.1c1.1-4.8,1.7-9.7,1.6-14.7
			v-4.9h-8.3v5c0,6.7-0.4,10.9-1.6,13.5s-3,3.3-6.1,3.3c-2.4,0-4.8-0.6-7-1.6c1.3-4.9,1.9-10.1,1.7-15.2h-8.3
			c0,6.7-0.3,10.9-1.6,13.5s-3,3.3-6.1,3.3c-2.6,0-5.2-0.7-7.5-1.8c1.2-4.9,1.7-9.9,1.6-15H244c0,6.7-0.4,10.9-1.6,13.5
			c-0.8,2.2-3,3.6-5.4,3.3H237l0,0c-3.1,0-6.3-0.1-9.4-0.6c3.8-3.2,6.1-7.9,6.2-12.8c0-7.2-6.6-12.9-16.5-12.9
			c-6.2,0-13.9,2.8-21.9,8.1l3.7,7.4c0.7-0.4,1.3-0.7,2-1.1c3.1,3.4,5.8,7.1,8,11c-4.6,0.6-9.2,0.8-13.8,0.8h-4
			c0-3.9-0.1-6.4-0.3-8.8c-0.6-10.6-6.6-16.6-15.4-16.6c-9.5,0-16.5,7.5-16.5,17.8c0,10.5,7.3,16.9,18.5,16.9h4.8
			c-1.6,4.4-7.4,7.1-17.3,7.1v8.1c17.6,0,25-6.2,26.2-15.2h4c10.9,0,15.9-0.8,23.2-3.8c5.8,2.7,12.1,4,18.5,3.8l0,0c0,0,0,0,0.1,0
			c4,0.2,7.8-1.5,10.4-4.6c4.7,3.1,7.7,4.6,11.3,4.6c3.9,0.2,7.6-1.4,10.2-4.4c4.5,3,7.5,4.4,11,4.4c4.2,0.2,8.2-1.6,10.8-4.9
			c3.1,3,7.1,4.7,11.4,4.9l0,0c10.3,0,15.7-5.4,15.7-13.9v-37.3h-8.8V618.5z"/>
		<rect x="329.2" y="582.8" class="st1" width="8.9" height="51.2"/>
		<polygon class="st1" points="385.4,586.4 390.8,591.6 397.3,585 390.7,578.4 385.4,583.7 379.9,578.4 373.4,585 380,591.6 		"/>
		<polygon class="st1" points="407.7,643.3 402.4,638.2 395.9,644.8 402.6,651.3 407.7,646.2 413,651.3 419.5,644.8 412.9,638.2 		
			"/>
		<path class="st1" d="M376.5,624.8c-4.1,0-6.4-2.1-6.4-5.6c0-5.5,4.8-9.9,13.5-11.6v11.6c0,1.4,0.1,2.8,0.4,4.2
			C381.5,624.4,379,624.8,376.5,624.8 M397.3,634h5.8c10.3,0,15.7-5.4,15.7-13.9c0-4.7-0.6-10.1-2.1-20.3h-8.9
			c1.5,10,2.1,14.9,2.1,18.9s-1.6,6.1-6.8,6.1h-5.8c-3.7,0-4.9-1.8-4.9-4.9V596h-8.9v3.8c-16.5,2.7-22.2,12.6-22.2,20.4
			c0,8.5,5.8,13.8,15,13.8c3.9,0,7.1-1.4,10.9-3.5C389.5,632.7,392.9,634,397.3,634"/>
		<path class="st1" d="M457.8,634h5.8c10.3,0,15.7-5.4,15.7-13.9c0-4.7-0.6-10.1-2.1-20.3h-8.9c1.6,10,2.1,14.9,2.1,18.9
			c0,4-1.6,6.1-6.8,6.1h-5.8c-3.7,0-6.2-2-7.5-6.1c-1.6-4.8-2.6-11.7-3.7-18.9h-9.2c1.2,7.4,2.9,14.8,5.1,22l0.9,2.2
			c-2.7,0.6-5.5,0.8-8.3,0.8c-3.7,0-7.4-0.6-11-1.7l-1.7,8.8c4,1.5,8.2,2.2,12.4,2.2c4.6,0,9-1.3,12.8-3.8
			C450.4,632.7,454,634.1,457.8,634"/>
		<polygon class="st1" points="468.2,643.3 462.9,638.2 456.4,644.8 463.1,651.3 468.2,646.2 473.5,651.3 480,644.8 473.4,638.2 		
			"/>
		<path class="st1" d="M569.6,618.6c0,4.2-1.6,6.1-6.8,6.1c-4.3,0-6.6-1-7.7-2.7l2.2-0.4l2.5-9c-12.9-3.2-17.7-13.3-28.4-13.3
			c-3.5,0.1-6.9,1.1-10,2.8l2.5,7.9c2.2-1,4.7-1.6,7.1-1.6c6.2,0,9.7,4.5,17.7,8.4c-8.3,3.2-13.9,7.8-30.3,7.8h-0.1
			c-3.7,0-6.2-2.1-7.5-6.1c-1.6-4.8-2.6-11.7-3.7-18.9H498c1.2,7.4,2.9,14.8,5.2,22l0.8,2.2c-2.7,0.6-5.5,0.8-8.3,0.8
			c-3.7,0-7.4-0.6-10.9-1.7l-1.7,8.8c3.9,1.5,8.1,2.2,12.3,2.3c4.6,0,9-1.3,12.8-3.8c2.7,2.6,6.4,3.9,10.1,3.8h0.1
			c18.7,0,21.7-6.5,31.2-10.3c0.8,6.8,5.4,10.3,13.3,10.3c10.3,0,15.7-5.4,15.7-13.9v-37.3h-8.9L569.6,618.6z"/>
		<rect x="589.9" y="582.8" class="st1" width="8.9" height="51.2"/>
		<path class="st1" d="M648,624.6c-3.8,0-7.3-0.1-10.9-0.4c12.6-13.8,17.3-18.5,23.6-18.5c4.7,0,8.3,3.2,8.3,7.7
			C669,619.9,660.8,624.6,648,624.6 M662.5,596.3c-7.5,0-13.5,4.1-24.2,15.9c1.1-4.5,1.7-9.1,1.9-13.7v-15.7h-8.9v37.5
			c-0.8,1-1.6,1.9-2.5,2.8c-2.2-0.3-4.3-0.7-6.4-1.1l-1.8,8.8c8.7,2,17.7,3.1,26.7,3.2c19.7,0,30.6-8.8,30.6-21.8
			C677.9,603.2,671.5,596.4,662.5,596.3"/>
		<polygon class="st1" points="801.7,588.3 795,581.7 788.5,588.3 795.1,594.9 		"/>
		<path class="st1" d="M743,624.6H732c12.3-13.6,17.4-18.9,23.6-18.9c4.2-0.3,7.9,3,8.2,7.2c0,0.2,0,0.3,0,0.5
			C763.8,619.9,755.5,624.6,743,624.6 M702.9,624.8c-7.1,0-11-2.7-11-8.1c0-4.9,3.4-8.3,7.5-8.3s6.6,2.6,7,8.1
			c0.1,2.6,0.4,5.1,0.5,8.3C705.8,624.8,704.7,624.8,702.9,624.8 M828.5,618.6c0,4.2-1.6,6.1-6.8,6.1c-4.3,0-6.6-1-7.7-2.7l2.2-0.4
			l2.5-9c-12.9-3.2-17.7-13.3-28.4-13.3c-3.5,0.1-6.9,1.1-10,2.8l2.5,7.9c2.2-1,4.6-1.6,7-1.6c6.2,0,9.7,4.5,17.7,8.4
			c-8.3,3.2-13.9,7.8-30.4,7.8l0,0c-2.6,0.1-5.2-0.5-7.5-1.7c2.1-3.2,3.2-7,3.1-10.8c0.3-8.4-6.2-15.4-14.6-15.7c-0.3,0-0.6,0-1,0
			c-7.1,0-13.6,4.3-23.7,16c1.1-4.5,1.8-9.2,1.9-13.8v-15.7h-8.9v38c-1,1.3-2,2.5-3,3.8h-8.1c0-3.9-0.1-6.4-0.3-8.8
			c-0.6-10.6-6.6-16.6-15.4-16.6c-9.5,0-16.6,7.5-16.6,17.8c0,10.5,7.3,16.9,18.5,16.9h4.8c-1.6,4.4-7.4,7.1-17.3,7.1v8.1
			c17.6,0,25-6.2,26.2-15.2h28.2c8.8,0,16-2.1,21-5.9c3.9,4,8.3,5.9,12.5,5.9l0,0c18.7,0,21.7-6.5,31.2-10.3
			c0.9,6.8,5.4,10.3,13.3,10.3c10.3,0,15.7-5.4,15.7-13.9v-37.3h-8.8V618.6z"/>
		<rect x="848.8" y="582.8" class="st1" width="8.9" height="51.2"/>
	</g>
</g>
</svg>
