<?xml version="1.0" encoding="utf-8"?>
<!-- Generator: Adobe Illustrator 22.0.1, SVG Export Plug-In . SVG Version: 6.00 Build 0)  -->
<svg version="1.1" id="Layer_1" xmlns="http://www.w3.org/2000/svg" xmlns:xlink="http://www.w3.org/1999/xlink" x="0px" y="0px"
	 viewBox="0 0 1000 1000" style="enable-background:new 0 0 1000 1000;" xml:space="preserve">
<style type="text/css">
	.st0{fill:#06324C;}
	.st1{fill:#77DCD2;}
	.st2{fill:#2BB9AE;}
	.st3{fill:#189391;}
	.st4{fill:#29BBAB;}
	.st5{fill:#0B746F;}
</style>
<g>
	<circle class="st0" cx="645.3" cy="543.6" r="5.2"/>
	<circle class="st0" cx="158.3" cy="543.8" r="5.2"/>
	<circle class="st0" cx="145.4" cy="543.8" r="5.2"/>
	<path class="st0" d="M156.8,522.8h-7.1c-4.4,0-8.6-1.5-12-4.2v-2.1v-22h-19c-10.5,0-19,8.5-19,19v0.6c0,10.5,8.5,19,19,19
		c5.1,0,9.8-2,13.2-5.4c5.1,3.8,11.2,5.8,17.8,5.8h17.8v-39.8h-10.7V522.8z M127,514c0,4.6-3.7,8.3-8.3,8.3c-4.6,0-8.3-3.7-8.3-8.3
		v-0.6c0-4.6,3.7-8.3,8.3-8.3h8.3V514z"/>
	<path class="st0" d="M188.6,492.9h-6.5v10.7h6.5c6,0,10.9,4.9,10.9,10.9v8.3h-22.7v10.7h33.4v-19
		C210.1,502.6,200.5,492.9,188.6,492.9z"/>
	<path class="st0" d="M387.1,522.7l-13.2,0c-2-0.3-3.5-2.1-3.5-4.2v-15.7v-6.9h-10.7v6.9v15.7c0,2.3-1.9,4.2-4.2,4.2h-3.3
		c-2.3,0-4.2-1.9-4.2-4.2v-19.6h-10.7v19.6c0,2.3-1.9,4.2-4.2,4.2h-2.1c-2.3,0-4.2-1.9-4.2-4.2v-15.7h-0.1H316h-0.1v15.7
		c0,1.8-1.2,3.4-2.8,4l-24.8-0.1c-4.5-3.8-9-9.1-9-11.8c0-4.5,4.6-7,7.8-7c3.8,0,9,2.4,10.6,3.3l5.2-9.3c-0.9-0.5-8.5-4.7-15.8-4.7
		c-4.4,0-8.9,1.7-12.3,4.6c-4,3.4-6.1,8-6.1,13.1c0,4.1,2.2,8.2,4.8,11.8l-18.4-0.1v-27.9h-19c-10.5,0-19,8.5-19,19v0.6
		c0,10.5,8.5,19,19,19h8.1c-0.6,3.1-2.2,6.5-6.5,7.1l1.4,10.6c7.5-1,12.8-5.7,15-13.3c0.4-1.5,0.7-3,0.9-4.3l54.6,0.2v0.3h2.1
		c3.7,0,7-1.3,9.6-3.5c2.6,2.2,6,3.5,9.6,3.5h2.1c3.6,0,7-1.3,9.6-3.5c2.6,2.2,5.9,3.5,9.6,3.5h3.3c3.6,0,7-1.3,9.6-3.5
		c2.1,1.8,4.8,3,7.7,3.4l0,0.1l0.6,0c0.4,0,0.8,0.1,1.3,0.1h2.1v-0.1l21,0.1V478h-10.7V522.7z M244.4,522.3h-8.3
		c-4.6,0-8.3-3.7-8.3-8.3v-0.6c0-4.6,3.7-8.3,8.3-8.3h8.3V522.3z"/>
	<rect x="409.9" y="478" class="st0" width="10.7" height="55.4"/>
	<rect x="700.4" y="478" class="st0" width="10.7" height="55.4"/>
	<path class="st0" d="M498.1,522.8h-36.8c-2.4,0-4.3-1.9-4.3-4.3v-8.1h-10.7v8.1c0,8.3,6.7,15,15,15h47.5V478h-10.7V522.8z"/>
	<path class="st0" d="M486.1,504.1h-10.2v-2.6c0-2.5,2-4.6,4.6-4.6h4V490h-4c-6.3,0-11.4,5.1-11.4,11.4v9.5h17.1V504.1z"/>
	<path class="st0" d="M522.3,533.9c0,1.8-0.6,3.4-1.7,4.6c-0.9,1-2,1.6-3.3,1.7l1,10.6c4-0.4,7.5-2.2,10.3-5.2
		c2.8-3.1,4.4-7.3,4.4-11.8v-38.8h-10.7V533.9z"/>
	<path class="st0" d="M678.7,522.8h-14.9c-0.3-8.7-2.7-15.6-7.1-20.6c-5.9-6.6-13-7.1-13.8-7.1l-19.8,0v10.7h19.3
		c0.5,0.1,3.7,0.6,6.3,3.6c2.6,3,4.1,7.6,4.4,13.5h-35.4c-0.8-0.2-3.6-1.1-5.6-5.2l-0.1,0c0.1-0.8,0.2-1.7,0.2-2.6
		c0-11.2-8.6-20.3-19.3-20.3c-10.6,0-19.3,9.1-19.3,20.3c0,1.2,0.1,2.3,0.3,3.5c-1.9,3.3-4.4,4.1-5.1,4.3h-12.4V478h-10.7v55.4h23.8
		l0.2,0c2.2-0.2,5.9-1.4,9.2-4.4c3.5,3.9,8.5,6.3,14,6.3c5.7,0,10.8-2.6,14.3-6.7c3.5,3.2,7.3,4.5,9.6,4.7l44.9,0v0h27.8V478h-10.7
		V522.8z M593.1,524.4c-4.7,0-8.6-4.2-8.6-9.4c0-5.2,3.8-9.4,8.6-9.4c4.7,0,8.6,4.2,8.6,9.4C601.7,520.2,597.8,524.4,593.1,524.4z"
		/>
	<circle class="st0" cx="133.5" cy="482.5" r="5.2"/>
	<circle class="st0" cx="120.6" cy="482.5" r="5.2"/>
</g>
<path class="st1" d="M832.8,457.9c0,0-42.8,0-55.6,12.1c-2.2,2.1-3.4,5-3.4,8.1v5.1c0,0,21.2-17.2,55.2-5.2
	C829.1,478,831.4,461.5,832.8,457.9z"/>
<path class="st1" d="M813.8,485.4c0,0-22-7.2-40,4v20.1C773.8,509.4,788.6,491,813.8,485.4z"/>
<path class="st2" d="M812.2,498.8c0,0-21.2,1.6-38.3,18.7v24.3c0,0,0.7,15,2.8,18.4c0,0,25.1-5.3,52.5,13.7c0,0,1.3-2.8,1.3-9.5
	s0.4-49.3,0.4-49.3s-11.9,9.7-15.5,24.5c0,0-0.5,4-2.5,4s-1.9-6-0.5-11.9c1.4-6,4.7-15.4,9.9-22.5c0,0-15.9,1.6-27,24.6
	c0,0-1,4-3.2,3.3S792.2,514.8,812.2,498.8z"/>
<path class="st3" d="M777.7,565c0,0,8.1,24,24.6,36.7c0,0,10.2-3.6,24.8-17.3C827.2,584.4,808,567,777.7,565z"/>
<path class="st1" d="M837.3,457.9c0,0,42.8,0,55.6,12.1c2.2,2.1,3.4,5,3.4,8.1v5.1c0,0-21.2-17.2-55.2-5.2
	C841.1,478,838.7,461.5,837.3,457.9z"/>
<path class="st1" d="M856.4,485.4c0,0,22-7.2,40,4v20.1C896.3,509.4,881.6,491,856.4,485.4z"/>
<path class="st4" d="M858,498.8c0,0,21.2,1.6,38.3,18.7v24.3c0,0-0.7,15-2.8,18.4c0,0-25.1-5.3-52.5,13.7c0,0-1.3-2.8-1.3-9.5
	s-0.4-49.3-0.4-49.3s11.9,9.7,15.5,24.5c0,0,0.5,4,2.5,4s1.9-6,0.5-11.9s-4.7-15.4-9.9-22.5c0,0,15.9,1.6,27,24.6c0,0,1,4,3.2,3.3
	C880.3,536.4,878,514.8,858,498.8z"/>
<path class="st3" d="M892.4,565c0,0-8.1,24-24.6,36.7c0,0-10.2-3.6-24.8-17.3C843,584.4,862.2,567,892.4,565z"/>
<path class="st5" d="M835.1,590.1c-14.1,13.5-23.9,18.4-23.9,18.4c7,5.4,17.8,9.9,22.1,11.6c1.1,0.5,2.4,0.5,3.6,0
	c4.2-1.7,15.1-6.3,22.1-11.6C858.9,608.5,849.2,603.6,835.1,590.1z"/>
<g>
	<path d="M711.8,585.6c-1-1.3-2.2-2.3-3.6-2.8c-1.4-0.6-3-1.1-4.7-1.5c-1.7-0.4-3.3-0.8-4.7-1.1c-1.4-0.3-2.7-0.7-3.6-1.3
		c-1-0.6-1.4-1.5-1.4-2.5c0-2.5,1.8-3.7,5.4-3.7c4.1,0,6.2,1.5,6.4,4.6h6.5c-0.1-3.2-1.3-5.7-3.4-7.4c-2.2-1.8-5.1-2.7-8.9-2.7
		c-4.1,0-7.2,0.8-9.4,2.5c-2.2,1.6-3.2,4-3.2,7.1c0,1.8,0.4,3.3,1.1,4.5c0.7,1.2,1.6,2.1,2.8,2.8c1.1,0.6,2.4,1.1,3.8,1.5
		c1.4,0.4,2.8,0.7,4.1,1c1.4,0.3,2.6,0.5,3.8,0.8c1.1,0.3,2.1,0.8,2.8,1.4c0.7,0.6,1.1,1.4,1.1,2.4c0,2.7-1.9,4.1-5.7,4.1
		c-4.4,0-6.9-1.7-7.4-5.2h-6.8c0.2,3.4,1.4,6,3.8,7.9c2.3,1.9,5.6,2.8,9.7,2.8c4.2,0,7.4-0.9,9.7-2.8c2.3-1.8,3.5-4.3,3.5-7.5
		C713.2,588.5,712.7,586.9,711.8,585.6z"/>
	<path d="M332.8,568h-5.5H327l-13.6,31.9h6.1l2.9-7.2h7.7h7.7l2.9,7.2h6.1L333.1,568H332.8z M330,587.8h-5.5l5.4-12.9l0-0.1l0,0.1
		l5.4,12.9H330z"/>
	<path d="M375,587c0,4.9-4,8.9-8.9,8.9c-4.9,0-8.9-4-8.9-8.9v-19h-5.3v19c0,7.9,6.4,14.2,14.2,14.2c7.9,0,14.2-6.4,14.2-14.2v-19
		H375V587z"/>
	<path d="M526.2,587c0,4.9-4,8.9-8.9,8.9c-4.9,0-8.9-4-8.9-8.9v-19h-5.3v19c0,7.9,6.4,14.2,14.2,14.2s14.2-6.4,14.2-14.2v-19h-5.3
		V587z"/>
	<path d="M403.2,568.1h-13.5v32h13.5c8.1,0,14.6-6.6,14.6-14.6v-2.7C417.9,574.6,411.3,568.1,403.2,568.1z M412.5,585.4
		c0,5.1-4.2,9.3-9.3,9.3h-8.1v-21.3h8.1c5.1,0,9.3,4.2,9.3,9.3V585.4z"/>
	<rect x="427.7" y="568" width="5.3" height="32"/>
	<path d="M479.4,572.6c4.9,0,9.1,3.2,10.7,7.6h5.4c-1.7-7.3-8.3-12.7-16.1-12.7c-9.1,0-16.5,7.4-16.5,16.5c0,9.1,7.4,16.5,16.5,16.5
		c7.8,0,14.3-5.4,16.1-12.7h-5.4c-1.6,4.4-5.8,7.6-10.7,7.6c-6.3,0-11.4-5.1-11.4-11.4C468,577.7,473.1,572.6,479.4,572.6z"/>
	<polygon points="571.3,573.2 582.8,573.2 582.8,599.9 588.2,599.9 588.2,573.2 599.4,573.2 599.4,567.9 571.3,567.9 	"/>
	<path d="M620.5,567.2c-9.3,0-16.8,7.5-16.8,16.8s7.5,16.8,16.8,16.8s16.8-7.5,16.8-16.8S629.7,567.2,620.5,567.2z M620.5,595.4
		c-6.3,0-11.4-5.1-11.4-11.4s5.1-11.4,11.4-11.4s11.4,5.1,11.4,11.4S626.8,595.4,620.5,595.4z"/>
	<polygon points="661.6,587.7 649,568.1 645.3,568.1 645.3,599.9 650.6,599.9 650.6,581.1 659.8,594.7 663.5,594.7 672.6,580.9 
		672.6,599.9 678,599.9 678,568.1 673.7,568.1 	"/>
	<path d="M303.7,583.2c-1.4-0.6-3-1.1-4.7-1.5c-1.7-0.4-3.2-0.8-4.7-1.1c-1.5-0.3-2.8-0.8-3.8-1.4c-1.1-0.7-1.6-1.7-1.6-2.8
		c0-2.8,2-4.1,5.9-4.1c4.1,0,6.4,1.6,6.8,4.6h5.7c-0.2-2.8-1.3-5.1-3.2-6.7c-2.1-1.7-5-2.6-8.7-2.6c-4,0-7,0.8-9.1,2.4
		c-2.1,1.6-3.1,3.8-3.1,6.8c0,1.7,0.3,3.1,1,4.3c0.7,1.1,1.5,2,2.6,2.6c1.1,0.6,2.3,1.1,3.7,1.5c1.4,0.4,2.8,0.7,4.1,1
		c1.4,0.3,2.6,0.5,3.8,0.8c1.2,0.3,2.2,0.8,2.9,1.5c0.8,0.7,1.2,1.6,1.2,2.7c0,3-2.1,4.5-6.2,4.5c-4.5,0-7.1-1.8-7.8-5.2h-5.9
		c0.2,3,1.4,5.4,3.6,7.1c2.3,1.8,5.4,2.7,9.5,2.7c4.1,0,7.2-0.9,9.4-2.7c2.2-1.8,3.3-4.1,3.3-7.2c0-1.8-0.5-3.4-1.4-4.6
		C306.2,584.6,305.1,583.7,303.7,583.2z"/>
	<path d="M561.7,583.2c-1.4-0.6-3-1.1-4.7-1.5c-1.7-0.4-3.2-0.8-4.7-1.1c-1.5-0.3-2.8-0.8-3.8-1.4c-1.1-0.7-1.6-1.7-1.6-2.8
		c0-2.8,2-4.1,5.9-4.1c4.1,0,6.4,1.6,6.8,4.6h5.7c-0.2-2.8-1.3-5.1-3.2-6.7c-2.1-1.7-5-2.6-8.7-2.6c-4,0-7,0.8-9.1,2.4
		c-2.1,1.6-3.1,3.8-3.1,6.8c0,1.7,0.3,3.1,1,4.3c0.7,1.1,1.5,2,2.6,2.6c1.1,0.6,2.3,1.1,3.7,1.5c1.4,0.4,2.8,0.7,4.1,1
		c1.4,0.3,2.6,0.5,3.8,0.8c1.2,0.3,2.2,0.8,2.9,1.5c0.8,0.7,1.2,1.6,1.2,2.7c0,3-2.1,4.5-6.2,4.5c-4.5,0-7.1-1.8-7.8-5.2h-5.9
		c0.2,3,1.4,5.4,3.6,7.1c2.3,1.8,5.4,2.7,9.5,2.7c4.1,0,7.2-0.9,9.4-2.7c2.2-1.8,3.3-4.1,3.3-7.2c0-1.8-0.5-3.4-1.4-4.6
		C564.2,584.6,563.1,583.7,561.7,583.2z"/>
</g>
</svg>
