<svg xmlns="http://www.w3.org/2000/svg" width="105.953" height="104.698" viewBox="0 0 105.953 104.698">
  <path id="search" d="M103.457,84.943,85.56,67.232,71.794,61.6A37.958,37.958,0,0,0,78.823,39.57a38.851,38.851,0,0,0-77.7,0A38.911,38.911,0,0,0,62.4,70.942l5.673,13.586,17.9,17.711a12.452,12.452,0,0,0,17.482,0,12.144,12.144,0,0,0,0-17.3ZM8.188,39.57a31.787,31.787,0,0,1,63.571,0,31.787,31.787,0,0,1-63.571,0ZM98.462,97.3a5.342,5.342,0,0,1-7.494,0l-16.9-16.726L68.793,67.937,81.56,73.157l16.9,16.726a5.209,5.209,0,0,1,0,7.413Z" transform="translate(-1.125 -1.125)" fill="#f2f2f2"/>
</svg>
