<svg xmlns="http://www.w3.org/2000/svg" width="40.751" height="36.166" viewBox="0 0 40.751 36.166">
  <path id="twitter" d="M40.751,7.232A11.716,11.716,0,0,1,39.23,9.553a11.445,11.445,0,0,1-2.748,2.468q.046.387.068.726A27.849,27.849,0,0,1,34.8,22.835,26.31,26.31,0,0,1,24.874,35.97c-4.8,2.932-10.388,3.555-15.537,3.023A17.228,17.228,0,0,1,0,35.148a16.658,16.658,0,0,0,12.448-3.823c-3.819.1-6.595-2.839-7.9-6.241a5,5,0,0,0,1.772.1,15.535,15.535,0,0,0,2-.291A9.486,9.486,0,0,1,2.635,20.2a10.665,10.665,0,0,1-.954-4.451,7.632,7.632,0,0,0,3.771,1.209,10.5,10.5,0,0,1-3.7-6.411A12.543,12.543,0,0,1,2.771,4.763a28.777,28.777,0,0,0,9.7,7.741A19.047,19.047,0,0,0,20.08,14.2,11.448,11.448,0,0,1,21.1,7.327a8.84,8.84,0,0,1,5.247-4.064,7.462,7.462,0,0,1,7.769,2.564A13.317,13.317,0,0,0,39.524,3.7,8.678,8.678,0,0,1,35.8,8.826a22.565,22.565,0,0,0,4.951-1.6Z" transform="translate(0 -3)" fill="#fff"/>
</svg>
