<svg xmlns="http://www.w3.org/2000/svg" width="44.975" height="34.013" viewBox="0 0 44.975 34.013">
  <path id="youtube" d="M20.842,30.78V17.191L32.99,24.01,20.842,30.78Zm26.68-15.941s-.438-3.335-1.788-4.8A6.2,6.2,0,0,0,41.227,7.99C34.936,7.5,25.495,7.5,25.495,7.5h-.018s-9.44,0-15.733.488a6.2,6.2,0,0,0-4.506,2.047c-1.349,1.467-1.788,4.8-1.788,4.8S3,18.752,3,22.665v3.669c0,3.912.45,7.828.45,7.828s.438,3.332,1.788,4.8C6.947,40.89,9.2,40.828,10.2,41.029c3.6.369,15.29.484,15.29.484s9.452-.015,15.743-.5a6.2,6.2,0,0,0,4.506-2.047c1.349-1.467,1.788-4.8,1.788-4.8s.45-3.915.45-7.828V22.665c0-3.915-.45-7.828-.45-7.828Z" transform="translate(-3 -7.5)" fill="#fff" fill-rule="evenodd"/>
</svg>
